<?xml version="1.0" encoding="UTF-8"?>
<!DOCTYPE svg PUBLIC "-//W3C//DTD SVG 1.1//EN" "http://www.w3.org/Graphics/SVG/1.1/DTD/svg11.dtd">
<!-- Creator: CorelDRAW X5 -->
<svg xmlns="http://www.w3.org/2000/svg" xml:space="preserve" width="50.7998mm" height="8.8976mm" style="shape-rendering:geometricPrecision; text-rendering:geometricPrecision; image-rendering:optimizeQuality; fill-rule:evenodd; clip-rule:evenodd"
viewBox="0 0 5080 890"
 xmlns:xlink="http://www.w3.org/1999/xlink"
 xmlns:svg="http://www.w3.org/2000/svg">
 <defs>
  <style type="text/css">
   <![CDATA[
    .fil0 {fill:#FF0025}
   ]]>
  </style>
 </defs>
 <g id="Layer_x0020_1">
  <metadata id="CorelCorpID_0Corel-Layer"/>
 </g>
 <g id="svg2">
  <metadata id="CorelCorpID_1Corel-Layer"/>
  <path class="fil0" d="M406 197l0 526c0,74 -1,122 29,147 -104,44 -196,11 -196,-147l0 -526 -240 0 0 -54c0,-78 36,-113 93,-113l131 0c134,0 183,94 183,167zm3306 228c0,-128 130,-178 240,-178 71,0 137,19 186,49l0 142c-49,-46 -152,-63 -183,-64 -112,-3 -146,99 31,132 107,20 190,92 190,187 0,141 -129,195 -253,195 -78,0 -139,-17 -210,-67l0 -144c46,41 126,90 198,88 146,-5 154,-106 4,-137 -162,-33 -201,-109 -201,-203zm-1410 -178c176,0 318,143 318,320 0,177 -142,320 -318,320 -176,0 -318,-143 -318,-320 0,-177 142,-320 318,-320zm0 147c86,0 156,79 156,177 0,98 -70,177 -156,177 -86,0 -156,-79 -156,-177 0,-98 70,-177 156,-177zm-860 -395l167 0 0 532 218 -272 183 0 -203 254c-19,24 -60,54 -90,54 31,0 73,30 94,54l220 254 -132 0c-34,0 -70,-21 -92,-48l-197 -227 0 277 -167 0 0 -877zm3072 248c156,0 282,95 286,331 0,35 -15,40 -27,40l-397 0c19,74 74,123 137,135 90,16 195,-25 242,-67l0 139c-57,44 -135,70 -242,64 -164,-10 -297,-144 -297,-321 0,-177 133,-321 297,-321zm123 255c-1,-70 -51,-130 -123,-130 -64,0 -118,55 -136,130l260 0zm413 -381l0 602c0,74 -1,122 29,147 -104,44 -196,11 -196,-147l0 -724 70 0c68,0 97,49 97,122zm-4251 126c156,0 282,95 286,331 0,35 -15,40 -27,40l-397 0c19,74 74,123 137,135 90,16 195,-25 242,-67l0 139c-57,44 -135,70 -242,64 -164,-10 -297,-144 -297,-321 0,-177 133,-321 297,-321zm123 255c-1,-70 -51,-130 -123,-130 -64,0 -118,55 -136,130l260 0zm1943 24l0 350 -167 0 0 -617 70 0c68,0 97,49 97,122 0,-135 254,-219 345,-23 65,-151 410,-186 410,122l0 395 -167 0 0 -391c0,-157 -211,-106 -211,40l0 350 -167 0 0 -391c0,-157 -211,-106 -211,40zm-1530 -405l0 602c0,74 -1,122 29,147 -104,44 -196,11 -196,-147l0 -724 70 0c68,0 97,49 97,122zm-902 37c1,22 14,38 55,38l103 0c47,0 56,-24 56,-53l0 -114 -298 0c39,29 80,73 83,128z"/>
 </g>
</svg>
